<svg width="254.74" height="699" viewBox="0 0 254.74 699" xmlns="http://www.w3.org/2000/svg" xmlns:xlink="http://www.w3.org/1999/xlink"><svg data-name="Layer 1" viewBox="-6 -6 34.26 31.24" width="34.26" height="31.24" id="checkbox-off"><path class="acls-1" d="M20.57 15.24a4 4 0 0 1-4 4h-10a4 4 0 0 1-4-4v-10a4 4 0 0 1 4-4h10a4 4 0 0 1 4 4zm-2-10a2 2 0 0 0-2-2h-10a2 2 0 0 0-2 2v10a2 2 0 0 0 2 2h10a2 2 0 0 0 2-2z"/></svg><svg id="checkbox-on" data-name="Layer 1" viewBox="-6 -6 34.26 31.24" width="34.26" height="31.24" y="32"><defs><style>.bcls-1{fill:#1c222b}.bcls-2{fill:#13afc8;stroke:#13afc8;stroke-miterlimit:10}</style></defs><path class="bcls-1" d="M20.57 15.24a4 4 0 0 1-4 4h-10a4 4 0 0 1-4-4v-10a4 4 0 0 1 4-4h10a4 4 0 0 1 4 4zm-2-10a2 2 0 0 0-2-2h-10a2 2 0 0 0-2 2v10a2 2 0 0 0 2 2h10a2 2 0 0 0 2-2z"/><path class="bcls-2" d="M17.89 1.33l-11.3 11.3-3.08-3.08A2 2 0 0 0 .66 12.4l4.5 4.5a2 2 0 0 0 2.84 0L20.74 4.17a2 2 0 1 0-2.85-2.85zm0 0"/></svg><svg id="coyote" viewBox="-6 -6 111.86 44.85" width="111.86" height="44.85" y="64"><defs><style>.ccls-1{fill:#fff}</style></defs><title>Artboard 17</title><path class="ccls-1" d="M0 25.26V25v.26zm99.64-9.4a3.7 3.7 0 0 0-1-.64Q93 12.44 83.76 7.27l-1.82-5.83a1.48 1.48 0 0 0-.17-.44c-.07-.1-.14-.14-.22-.14a.32.32 0 0 0-.21.14 1.74 1.74 0 0 0-.2.36c-.09.25-.67 1.74-1.77 4.46a20.17 20.17 0 0 1-1-1.75c-.42-.8-.82-1.57-1.2-2.32s-.62-1.19-.7-1.34C76.28.11 76.13 0 76 0s-.22.17-.29.41-.34 2.19-.83 5.67c-1.5.29-2.58.49-3.24.6s-1.74.26-3.21.45-3 .34-4.5.44a54 54 0 0 1-6.11-.21L52.91 7a73.88 73.88 0 0 0-12.29 1 9.27 9.27 0 0 0-2.51.78c-.35.17-.69.36-1 .57s-.63.4-.84.57l-.64.52a5.3 5.3 0 0 0-.41.35l-.14.14-.6-.05-1.84-.06h-2.47a46.23 46.23 0 0 0-6.21.48 25.32 25.32 0 0 0-6.13 1.59 37.49 37.49 0 0 0-5.68 3.25 51.48 51.48 0 0 0 6.06 1.47c4.24.77 10.18-1.46 13.78-3.11 4.27-3.5 4.27-.1 4.27-.1v5.63a7.37 7.37 0 0 0 .83 4.08 2.53 2.53 0 0 1 .19.43 5.28 5.28 0 0 1 .17.61c0 .23.09.45.12.65s.07.48.11.83.08.65.1.9.06.6.11 1.07.09.85.13 1.14a6.16 6.16 0 0 0 .66 2.39 1.71 1.71 0 0 0 3.1-.6.89.89 0 0 0-.18-.73 1.47 1.47 0 0 0-.41-.41 1.8 1.8 0 0 0-.29-.1l-.05-2.82a15.64 15.64 0 0 1 .2-3.59c.15 0 .47-.08 1-.15l1-.15c0 .16.08 2.27.25 6.31a4.08 4.08 0 0 0 .26 1.44 1.81 1.81 0 0 0 .58.82 2.44 2.44 0 0 0 .62.33 1.83 1.83 0 0 0 .56.09 1.46 1.46 0 0 0 .95-.34 1.54 1.54 0 0 0 .52-1 .85.85 0 0 0-.16-.71 1.64 1.64 0 0 0-.4-.43l-.27-.16q.2-3.45.56-6.15A55.59 55.59 0 0 0 54.27 25a38.42 38.42 0 0 0 6.71.08q0 .38.15 1.21c.09.56.19 1.17.3 1.83s.2 1.1.23 1.3c.1.62.18 1.07.23 1.34a2.87 2.87 0 0 0 .39.93 1.51 1.51 0 0 0 .82.71 1.71 1.71 0 0 0 1.2 0 1.06 1.06 0 0 0 .72-.68.64.64 0 0 0 .06-.48 1.57 1.57 0 0 0-.13-.37 1.64 1.64 0 0 0-.22-.29l-.2-.23v-3c0-1.57 0-2.75.1-3.55l1.72-.31a33.59 33.59 0 0 0 .91 3.94c.48 1.68.83 2.85 1.06 3.5A1.7 1.7 0 0 0 69 32a2 2 0 0 0 1.16.2 1.19 1.19 0 0 0 1.16-1.2.83.83 0 0 0-.14-.62 1.51 1.51 0 0 0-.33-.38l-.22-.14q-.15-7.66-.15-9l1.8-.86q1.44-.67 2.72-1.22a9.1 9.1 0 0 1 1.89-.66 5 5 0 0 1 .88-.06h7.8q2 0 6.27-.26t6-.47a7.33 7.33 0 0 0 1.51-.27.88.88 0 0 0 .5-.59.74.74 0 0 0-.21-.61zm-22.37-4.1a1.38 1.38 0 0 1-1 .73 1.76 1.76 0 0 1-1.27-.15 1.45 1.45 0 0 1-.76-.94 1.74 1.74 0 0 1 .12-1.17 1.23 1.23 0 0 1 .77-.74 4.65 4.65 0 0 1 .78-.09 1.34 1.34 0 0 1 .81.26 1.53 1.53 0 0 1 .58.81 1.59 1.59 0 0 1-.04 1.29zm5.31-.31a1.07 1.07 0 0 1-.48.39 2.55 2.55 0 0 1-.66.11 1.69 1.69 0 0 1-1.14-.32 1.08 1.08 0 0 1-.43-1.12 1.65 1.65 0 0 1 .18-.56 1.26 1.26 0 0 1 .25-.36 1.14 1.14 0 0 1 .36-.19 1.85 1.85 0 0 1 .34-.07h.32a2.77 2.77 0 0 1 .62 0 1.16 1.16 0 0 1 .63.39 1.22 1.22 0 0 1 .29.92 1.5 1.5 0 0 1-.29.82z"/></svg><svg id="jingle-jam" viewBox="-6 -6 199.62 157.6" width="199.62" height="157.6" y="109"><defs><style>.dcls-1{fill:#f3c6cf}.dcls-2{fill:#fff}</style></defs><title>Artboard 28</title><path class="dcls-1" d="M36 .33H17.78V7.9H29.4v18.92c0 8-6.36 12.74-17 12.74h-.51v7.65h.51c7 0 12.92-1.71 17.14-4.93 4.66-3.56 7.12-8.89 7.12-15.47V7.9H44v31.66h-8v7.65h23.2v-7.65h-8V7.9h8V.33H36z"/><path class="dcls-1" d="M84.67 31.41L64.48.26 58.91.19v47.02h7.21V16.34l20.01 30.87h5.7V.26h-7.16v31.15z"/><path class="dcls-1" d="M110.15 31.87h15.68a13.55 13.55 0 0 1-12.77 8.29c-8.22 0-14.44-7-14.44-16.34s6.22-16.16 14.44-16.16 12.24 5 13.35 9.71l.1.39h7.66l-.12-.6C131.69 4.49 121.26 0 113.06 0 100.72 0 91.4 10.24 91.4 23.81c0 13.74 9.11 23.73 21.66 23.73 7.79 0 15.58-5.18 19.12-12.37v.37l1-2.7a35.38 35.38 0 0 0 1.2-8.08v-.55h-24.23z"/><path class="dcls-1" d="M167.63 27.59h19.48v-7.71h-19.48V7.97h19.93V.33h-27.22v39.23h-19.78V.33h-7.22v46.88h54.28v-7.65h-19.99V27.59z"/><path class="dcls-2" d="M49.92 51.09h-38v15.27h23.41v38.14c0 16.07-12.82 25.68-34.33 25.68H0v15.42h1c14.12 0 26.06-3.44 34.57-9.94 9.43-7.16 14.35-17.91 14.35-31.16z"/><path class="dcls-2" d="M113.34 133.49l-31.1-83.74H71.62L36 145.6h15.72l.27-.69c2.12-5.95 5.42-14.63 10.13-26.58h29.71l10.42 27.27h11.09zm-45.76-29.76L77 75.36l9.28 28.37z"/><path class="dcls-2" d="M112.67 145.6h10.09V82.92l21.11 33.46h8.2l21.06-33.46v62.68h14.49V50.96h-11.51l-28.09 44.07-28.07-44.07h-11.76v94.64h4.48z"/></svg><svg id="paverkan" viewBox="-6 -6 140.49 39.34" width="140.49" height="39.34" y="267"><defs><style>.ecls-1{opacity:.5}.ecls-2{fill:#fff}</style></defs><title>Artboard 15</title><path class="ecls-1 ecls-2" d="M18.28 3.64a1.82 1.82 0 1 1 1.82-1.82 1.82 1.82 0 0 1-1.82 1.82zm0-2.74a.92.92 0 1 0 .92.92.92.92 0 0 0-.92-.91zm6.33 25.79h-1.69l-1.2-2.83-1.14-2.69H16c-.39.94-.73 1.75-1.13 2.69l-1.2 2.83H12l3.17-7.47 3.16-7.47 3.17 7.47zm-6.14-10.52l-.18-.67a14 14 0 0 1-.71 2c-.29.64-.63 1.42-.9 2.08h3.23l-.74-1.76zm20.29-3.77h1.7l-3.16 7.47-3.17 7.47L31 19.87l-3.2-7.47h1.7l2.23 5.26 2.22 5.26.18.67.18-.67 2.23-5.26zm8.06 14.29V12.4h8.44V14h-6.75v4.73h6.75v1.61h-6.75v4.72h6.75v1.61zm44.39 0h-2L86.26 23l-2.92-3.71-.63.6-.63.6v6.21h-1.7V12.4h1.69v6.26l.19-.24.19-.23 3-2.89 3-2.89h2.08l-3 2.9-3 2.9 3.37 4.25zm17.87 0h-1.69l-1.2-2.83L105 21h-4.5l-1.19 2.83-1.19 2.83h-1.7l3.16-7.47 3.17-7.47 3.17 7.47zm-6.14-10.52l-.18-.67a14.15 14.15 0 0 1-.71 2q-.43 1-.84 1.94h3.1l-.68-1.62zm25.55-3.77v14.94l-5.23-5.55-5.26-5.55-.19-.26-.19-.27v10.98H116V11.74l5.23 5.67 5.23 5.67.19.27.19.27V12.4zM3.94 12.38H0v14.35h1.7v-6.4h2.24a4 4 0 0 0 0-8zm0 6.31H1.71V14h2.23a2.36 2.36 0 0 1 0 4.71zm65.44 1.44a4 4 0 0 0-1.24-7.75h-3.93v14.35h1.7v-6.4h1.74l3 6.37h1.84zm-3.47-1.43V14h2.23a2.36 2.36 0 0 1 0 4.71h-2.23z"/></svg><svg id="soundcloud" viewBox="-6 -6 254.74 45.37" width="254.74" height="45.37" y="307"><defs><style>.fcls-1{font-size:10.21px;font-family:Montserrat-Bold,Montserrat;font-weight:700}.fcls-1,.fcls-18,.fcls-3{fill:#fff}.fcls-2{letter-spacing:-.04em}.fcls-3{stroke:#fff;stroke-miterlimit:10;stroke-width:3px}.fcls-4{fill:url(#flinear-gradient)}.fcls-5{fill:url(#flinear-gradient-2)}.fcls-6{fill:url(#flinear-gradient-3)}.fcls-7{fill:url(#flinear-gradient-4)}.fcls-8{fill:url(#flinear-gradient-5)}.fcls-9{fill:url(#flinear-gradient-6)}.fcls-10{fill:url(#flinear-gradient-7)}.fcls-11{fill:url(#flinear-gradient-8)}.fcls-12{fill:url(#flinear-gradient-9)}.fcls-13{fill:url(#flinear-gradient-10)}.fcls-14{fill:url(#flinear-gradient-11)}.fcls-15{fill:url(#flinear-gradient-12)}.fcls-16{fill:url(#flinear-gradient-13)}.fcls-17{fill:url(#flinear-gradient-14)}.fcls-19{fill:#f50}</style><linearGradient id="flinear-gradient" x1="26.27" y1="4.63" x2="26.27" y2="30.63" gradientUnits="userSpaceOnUse"><stop offset="0" stop-color="#f5871f"/><stop offset=".24" stop-color="#f47e20"/><stop offset=".63" stop-color="#f26621"/><stop offset="1" stop-color="#ef4923"/></linearGradient><linearGradient id="flinear-gradient-2" x1="23.77" y1="4.64" x2="23.77" y2="30.63" xlink:href="#flinear-gradient"/><linearGradient id="flinear-gradient-3" x1="18.82" y1="4.63" x2="18.82" y2="30.63" xlink:href="#flinear-gradient"/><linearGradient id="flinear-gradient-4" x1="21.28" y1="4.65" x2="21.28" y2="30.63" xlink:href="#flinear-gradient"/><linearGradient id="flinear-gradient-5" x1="9.16" y1="4.64" x2="9.16" y2="30.63" xlink:href="#flinear-gradient"/><linearGradient id="flinear-gradient-6" x1="28.79" y1="4.64" x2="28.79" y2="30.63" xlink:href="#flinear-gradient"/><linearGradient id="flinear-gradient-7" x1="11.55" y1="4.65" x2="11.55" y2="30.63" xlink:href="#flinear-gradient"/><linearGradient id="flinear-gradient-8" x1="13.95" y1="4.64" x2="13.95" y2="30.63" xlink:href="#flinear-gradient"/><linearGradient id="flinear-gradient-9" x1="16.34" y1="4.64" x2="16.34" y2="30.63" xlink:href="#flinear-gradient"/><linearGradient id="flinear-gradient-10" x1="31.3" y1="4.64" x2="31.3" y2="30.62" xlink:href="#flinear-gradient"/><linearGradient id="flinear-gradient-11" x1="2.23" y1="4.63" x2="2.23" y2="30.63" xlink:href="#flinear-gradient"/><linearGradient id="flinear-gradient-12" x1="4.44" y1="4.63" x2="4.44" y2="30.63" xlink:href="#flinear-gradient"/><linearGradient id="flinear-gradient-13" x1="6.79" y1="4.64" x2="6.79" y2="30.63" xlink:href="#flinear-gradient"/><linearGradient id="flinear-gradient-14" x1="47.08" y1="4.64" x2="47.08" y2="30.59" gradientUnits="userSpaceOnUse"><stop offset="0" stop-color="#f6921e"/><stop offset="0" stop-color="#f5891f"/><stop offset="0" stop-color="#f5871f"/><stop offset=".24" stop-color="#f47e20"/><stop offset=".63" stop-color="#f26621"/><stop offset="1" stop-color="#ef4923"/></linearGradient></defs><title>Artboard 13</title><text class="fcls-1" transform="translate(71.82 10.97)">CLIQUE <tspan class="fcls-2" x="42.11" y="0">P</tspan><tspan x="48.6" y="0">ARA OUVIR NO</tspan></text><path class="fcls-3" d="M27.32 23.75L27 11a.71.71 0 1 0-1.42 0l-.32 12.78.32 6.15a.71.71 0 0 0 1.42 0zm-2.53 0l-.39-13.26a.66.66 0 0 0-1.32 0l-.34 13.26.35 6.19a.66.66 0 0 0 .65.65.67.67 0 0 0 .66-.65zm-5.44-13.16a.55.55 0 1 0-1.11 0l-.41 13.17.41 6.24a.55.55 0 0 0 1.11 0l.46-6.28zm2.52-.45a.61.61 0 0 0-1.21 0l-.38 13.61.37 6.25a.61.61 0 0 0 1.21 0l.42-6.24zM9.12 30.42a.36.36 0 0 0 .35-.35l.6-6.33-.6-6.56a.35.35 0 0 0-.7 0l-.53 6.56.53 6.33a.36.36 0 0 0 .35.35zm20.73-6.67l-.32-15.2a.76.76 0 0 0-.76-.75.7.7 0 0 0-.41.13.75.75 0 0 0-.35.63v.14l-.28 15.06.27 6.1a.78.78 0 0 0 .18.45.76.76 0 0 0 1.34-.48v-.6zm-17.94-6.08a.4.4 0 0 0-.4-.39.41.41 0 0 0-.41.39l-.5 6.08.5 6.39a.4.4 0 0 0 .8 0l.57-6.39zm2.02-4.26a.46.46 0 0 0-.45.45L13 23.75l.47 6.39a.45.45 0 0 0 .9 0l.54-6.39-.54-9.89a.46.46 0 0 0-.44-.45zm2.89 16.72l.49-6.35-.49-12.15a.51.51 0 0 0-1 0l-.44 12.15.44 6.35a.51.51 0 0 0 1 0zM31.7 6.48a.77.77 0 0 0-.41-.12.82.82 0 0 0-.51.18.83.83 0 0 0-.3.63v.08l-.33 16.5.17 3.05.16 3a.81.81 0 0 0 1.62 0l.36-6-.36-16.62a.82.82 0 0 0-.4-.7zM2.19 27.24a.26.26 0 0 0 .24-.24l.51-3.26-.51-3.32a.25.25 0 0 0-.24-.23.25.25 0 0 0-.25.23l-.43 3.32.44 3.26a.25.25 0 0 0 .24.24zm2.21 2a.26.26 0 0 0 .25-.24l.67-5.26-.67-5.38a.27.27 0 0 0-.25-.24.26.26 0 0 0-.25.24l-.59 5.38.59 5.26a.26.26 0 0 0 .25.24zm2.35.94a.31.31 0 0 0 .3-.29l.63-6.14-.63-6.38a.3.3 0 0 0-.6 0l-.55 6.37.56 6.14a.31.31 0 0 0 .29.3zM54 15.91a7.32 7.32 0 0 0-2.84.57 13 13 0 0 0-17.65-11c-.55.21-.7.43-.7.86v23.41a.86.86 0 0 0 .79.85H54a7.34 7.34 0 1 0 0-14.68z"/><path class="fcls-4" d="M27.32 23.75L27 11a.71.71 0 1 0-1.42 0l-.32 12.78.32 6.15a.71.71 0 0 0 1.42 0z"/><path class="fcls-5" d="M24.79 23.75l-.39-13.26a.66.66 0 0 0-1.32 0l-.34 13.26.35 6.19a.66.66 0 0 0 .65.65.67.67 0 0 0 .66-.65z"/><path class="fcls-6" d="M19.35 10.59a.55.55 0 1 0-1.11 0l-.41 13.17.41 6.24a.55.55 0 0 0 1.11 0l.46-6.28z"/><path class="fcls-7" d="M21.87 10.14a.61.61 0 0 0-1.21 0l-.38 13.61.37 6.25a.61.61 0 0 0 1.21 0l.42-6.24z"/><path class="fcls-8" d="M9.12 30.42a.36.36 0 0 0 .35-.35l.6-6.33-.6-6.56a.35.35 0 0 0-.7 0l-.53 6.56.53 6.33a.36.36 0 0 0 .35.35z"/><path class="fcls-9" d="M29.85 23.75l-.32-15.2a.76.76 0 0 0-.76-.75.7.7 0 0 0-.41.13.75.75 0 0 0-.35.63v.14l-.28 15.06.27 6.1a.78.78 0 0 0 .18.45.76.76 0 0 0 1.34-.48v-.6z"/><path class="fcls-10" d="M11.91 17.67a.4.4 0 0 0-.4-.39.41.41 0 0 0-.41.39l-.5 6.08.5 6.39a.4.4 0 0 0 .8 0l.57-6.39z"/><path class="fcls-11" d="M13.93 13.41a.46.46 0 0 0-.45.45L13 23.75l.47 6.39a.45.45 0 0 0 .9 0l.54-6.39-.54-9.89a.46.46 0 0 0-.44-.45z"/><path class="fcls-12" d="M16.82 30.13l.49-6.35-.49-12.15a.51.51 0 0 0-1 0l-.44 12.15.44 6.35a.51.51 0 0 0 1 0z"/><path class="fcls-13" d="M31.7 6.48a.77.77 0 0 0-.41-.12.82.82 0 0 0-.51.18.83.83 0 0 0-.3.63v.08l-.33 16.5.17 3.05.16 3a.81.81 0 0 0 1.62 0l.36-6-.36-16.62a.82.82 0 0 0-.4-.7z"/><path class="fcls-14" d="M2.19 27.24a.26.26 0 0 0 .24-.24l.51-3.26-.51-3.32a.25.25 0 0 0-.24-.23.25.25 0 0 0-.25.23l-.43 3.32.44 3.26a.25.25 0 0 0 .24.24z"/><path class="fcls-15" d="M4.4 29.24a.26.26 0 0 0 .25-.24l.67-5.26-.67-5.38a.27.27 0 0 0-.25-.24.26.26 0 0 0-.25.24l-.59 5.38.59 5.26a.26.26 0 0 0 .25.24z"/><path class="fcls-16" d="M6.75 30.18a.31.31 0 0 0 .3-.29l.63-6.14-.63-6.38a.3.3 0 0 0-.6 0l-.55 6.37.56 6.14a.31.31 0 0 0 .29.3z"/><path class="fcls-17" d="M54 15.91a7.32 7.32 0 0 0-2.84.57 13 13 0 0 0-17.65-11c-.55.21-.7.43-.7.86v23.41a.86.86 0 0 0 .79.85H54a7.34 7.34 0 1 0 0-14.68z"/><path class="fcls-18" d="M78.09 22.29c-2.08-.49-2.64-.75-2.64-1.57 0-.58.47-1.18 1.87-1.18a4 4 0 0 1 3 1.34l1.89-1.83A6.28 6.28 0 0 0 77.42 17c-2.58 0-4.68 1.46-4.68 3.84 0 2.58 1.69 3.34 4.09 3.9s2.92.94 2.92 1.78c0 1-.73 1.42-2.28 1.42a4.23 4.23 0 0 1-3.35-1.5l-1.89 1.68a6.07 6.07 0 0 0 5.09 2.37c3.57 0 5.14-1.68 5.14-4.17 0-2.83-2.29-3.54-4.37-4.03zm12-5.29c-3.57 0-5.69 2.77-5.69 6.75s2.12 6.75 5.69 6.75 5.69-2.76 5.69-6.75S93.7 17 90.13 17zm0 10.9c-2.11 0-3-1.81-3-4.15s.88-4.15 3-4.15 3 1.81 3 4.15-.84 4.15-2.96 4.15zm16.25-3.34c0 2.09-1 3.38-2.69 3.38S101 26.61 101 24.52v-7.31h-2.6v7.35c0 3.81 2.13 5.94 5.29 5.94 3.33 0 5.31-2.19 5.31-6v-7.29h-2.62zm13.91-1.81v2.86c-.17-.34-.6-1-.92-1.48l-4.64-6.92h-2.51V30.3h2.58v-8.62c.17.33.6 1 .92 1.48l4.81 7.14h2.34V17.21h-2.58zm10-5.54h-4.09V30.3h3.91c3.37 0 6.7-1.94 6.7-6.54.07-4.76-2.7-6.55-6.44-6.55zm-.19 10.54h-1.29v-8h1.39c2.77 0 3.91 1.32 3.91 4 .08 2.4-1.18 4-3.92 4zm14.79-8.15a2.49 2.49 0 0 1 2.4 1.42l2.43-1.12A4.93 4.93 0 0 0 145 17c-3.43 0-5.82 2.77-5.82 6.75s2.3 6.75 5.72 6.75a5 5 0 0 0 4.84-3l-2.21-1.31A2.73 2.73 0 0 1 145 27.9c-2 0-3.11-1.8-3.11-4.15s1.11-4.15 3.04-4.15zm9.71-2.39H152V30.3h7.87v-2.58h-5.25zm12.23-.21c-3.57 0-5.69 2.77-5.69 6.75s2.12 6.75 5.69 6.75 5.69-2.76 5.69-6.75-2.12-6.75-5.69-6.75zm0 10.9c-2.12 0-3-1.81-3-4.15s.88-4.15 3-4.15 3 1.81 3 4.15-.88 4.15-3 4.15zM183 24.56c0 2.09-1 3.38-2.69 3.38s-2.68-1.33-2.68-3.42v-7.31h-2.62v7.35c0 3.81 2.13 5.94 5.29 5.94 3.33 0 5.31-2.19 5.31-6v-7.29H183zm10-7.35h-4.1V30.3h3.91c3.37 0 6.69-1.94 6.69-6.54.03-4.76-2.73-6.55-6.5-6.55zm-.19 10.54h-1.29v-8h1.39c2.76 0 3.9 1.32 3.9 4 .03 2.4-1.22 4-3.97 4z"/><path class="fcls-19" d="M226.06 32.37a15.68 15.68 0 1 1 15.68-15.68 15.7 15.7 0 0 1-15.68 15.68z"/><path class="fcls-18" d="M226.06 2a14.68 14.68 0 1 1-14.68 14.68A14.68 14.68 0 0 1 226.06 2m0-2a16.68 16.68 0 1 0 16.68 16.68A16.7 16.7 0 0 0 226.06 0z"/><path class="fcls-18" d="M223.18 22.44l6.42-5.85-6.2-5.28 1.57 5.42-1.79 5.71z"/></svg><svg id="tree" viewBox="-6 -6 125.06 148.22" width="125.06" height="148.22" y="353"><defs><style>.gcls-1{fill:#fff}.gcls-2{fill:#f3c6cf}.gcls-3{fill:#da546f}</style></defs><title>Artboard 6</title><path class="gcls-1" d="M54.12 110.58h4.16v25.64h-4.16zM9.04 76.28L56.89 0l47.2 76.63-95.05-.35z"/><path class="gcls-2" d="M5.36 96.9l51.55-82.18 50.86 82.56L5.36 96.9z"/><path class="gcls-3" d="M0 126.1l56.92-90.74 56.14 91.15L0 126.1z"/></svg><svg id="triangle" viewBox="-6 -6 237.64 196.29" width="237.64" height="196.29" y="502"><defs><style>.hcls-1{fill:#da546f}</style></defs><title>Artboard 29</title><path class="hcls-1" d="M0 183.46L113.59 0l112.05 184.29L0 183.46z"/></svg></svg>