<svg width="34.26" height="64" viewBox="0 0 34.26 64" xmlns="http://www.w3.org/2000/svg" xmlns:xlink="http://www.w3.org/1999/xlink"><svg data-name="Layer 1" viewBox="-6 -6 34.26 31.24" width="34.26" height="31.24" id="checkbox-off"><path class="acls-1" d="M20.57 15.24a4 4 0 0 1-4 4h-10a4 4 0 0 1-4-4v-10a4 4 0 0 1 4-4h10a4 4 0 0 1 4 4zm-2-10a2 2 0 0 0-2-2h-10a2 2 0 0 0-2 2v10a2 2 0 0 0 2 2h10a2 2 0 0 0 2-2z"/></svg><svg id="checkbox-on" data-name="Layer 1" viewBox="-6 -6 34.26 31.24" width="34.26" height="31.24" y="32"><defs><style>.bcls-1{fill:#1c222b}.bcls-2{fill:#13afc8;stroke:#13afc8;stroke-miterlimit:10}</style></defs><path class="bcls-1" d="M20.57 15.24a4 4 0 0 1-4 4h-10a4 4 0 0 1-4-4v-10a4 4 0 0 1 4-4h10a4 4 0 0 1 4 4zm-2-10a2 2 0 0 0-2-2h-10a2 2 0 0 0-2 2v10a2 2 0 0 0 2 2h10a2 2 0 0 0 2-2z"/><path class="bcls-2" d="M17.89 1.33l-11.3 11.3-3.08-3.08A2 2 0 0 0 .66 12.4l4.5 4.5a2 2 0 0 0 2.84 0L20.74 4.17a2 2 0 1 0-2.85-2.85zm0 0"/></svg></svg>