<svg id="Grid" xmlns="http://www.w3.org/2000/svg" viewBox="0 0 99.86 32.85"><defs><style>.cls-1{fill:#fff}</style></defs><title>Artboard 17</title><path class="cls-1" d="M0 25.26V25v.26zm99.64-9.4a3.7 3.7 0 0 0-1-.64Q93 12.44 83.76 7.27l-1.82-5.83a1.48 1.48 0 0 0-.17-.44c-.07-.1-.14-.14-.22-.14a.32.32 0 0 0-.21.14 1.74 1.74 0 0 0-.2.36c-.09.25-.67 1.74-1.77 4.46a20.17 20.17 0 0 1-1-1.75c-.42-.8-.82-1.57-1.2-2.32s-.62-1.19-.7-1.34C76.28.11 76.13 0 76 0s-.22.17-.29.41-.34 2.19-.83 5.67c-1.5.29-2.58.49-3.24.6s-1.74.26-3.21.45-3 .34-4.5.44a54 54 0 0 1-6.11-.21L52.91 7a73.88 73.88 0 0 0-12.29 1 9.27 9.27 0 0 0-2.51.78c-.35.17-.69.36-1 .57s-.63.4-.84.57l-.64.52a5.3 5.3 0 0 0-.41.35l-.14.14-.6-.05-1.84-.06h-2.47a46.23 46.23 0 0 0-6.21.48 25.32 25.32 0 0 0-6.13 1.59 37.49 37.49 0 0 0-5.68 3.25 51.48 51.48 0 0 0 6.06 1.47c4.24.77 10.18-1.46 13.78-3.11 4.27-3.5 4.27-.1 4.27-.1v5.63a7.37 7.37 0 0 0 .83 4.08 2.53 2.53 0 0 1 .19.43 5.28 5.28 0 0 1 .17.61c0 .23.09.45.12.65s.07.48.11.83.08.65.1.9.06.6.11 1.07.09.85.13 1.14a6.16 6.16 0 0 0 .66 2.39 1.71 1.71 0 0 0 3.1-.6.89.89 0 0 0-.18-.73 1.47 1.47 0 0 0-.41-.41 1.8 1.8 0 0 0-.29-.1l-.05-2.82a15.64 15.64 0 0 1 .2-3.59c.15 0 .47-.08 1-.15l1-.15c0 .16.08 2.27.25 6.31a4.08 4.08 0 0 0 .26 1.44 1.81 1.81 0 0 0 .58.82 2.44 2.44 0 0 0 .62.33 1.83 1.83 0 0 0 .56.09 1.46 1.46 0 0 0 .95-.34 1.54 1.54 0 0 0 .52-1 .85.85 0 0 0-.16-.71 1.64 1.64 0 0 0-.4-.43l-.27-.16q.2-3.45.56-6.15A55.59 55.59 0 0 0 54.27 25a38.42 38.42 0 0 0 6.71.08q0 .38.15 1.21c.09.56.19 1.17.3 1.83s.2 1.1.23 1.3c.1.62.18 1.07.23 1.34a2.87 2.87 0 0 0 .39.93 1.51 1.51 0 0 0 .82.71 1.71 1.71 0 0 0 1.2 0 1.06 1.06 0 0 0 .72-.68.64.64 0 0 0 .06-.48 1.57 1.57 0 0 0-.13-.37 1.64 1.64 0 0 0-.22-.29l-.2-.23v-3c0-1.57 0-2.75.1-3.55l1.72-.31a33.59 33.59 0 0 0 .91 3.94c.48 1.68.83 2.85 1.06 3.5A1.7 1.7 0 0 0 69 32a2 2 0 0 0 1.16.2 1.19 1.19 0 0 0 1.16-1.2.83.83 0 0 0-.14-.62 1.51 1.51 0 0 0-.33-.38l-.22-.14q-.15-7.66-.15-9l1.8-.86q1.44-.67 2.72-1.22a9.1 9.1 0 0 1 1.89-.66 5 5 0 0 1 .88-.06h7.8q2 0 6.27-.26t6-.47a7.33 7.33 0 0 0 1.51-.27.88.88 0 0 0 .5-.59.74.74 0 0 0-.21-.61zm-22.37-4.1a1.38 1.38 0 0 1-1 .73 1.76 1.76 0 0 1-1.27-.15 1.45 1.45 0 0 1-.76-.94 1.74 1.74 0 0 1 .12-1.17 1.23 1.23 0 0 1 .77-.74 4.65 4.65 0 0 1 .78-.09 1.34 1.34 0 0 1 .81.26 1.53 1.53 0 0 1 .58.81 1.59 1.59 0 0 1-.04 1.29zm5.31-.31a1.07 1.07 0 0 1-.48.39 2.55 2.55 0 0 1-.66.11 1.69 1.69 0 0 1-1.14-.32 1.08 1.08 0 0 1-.43-1.12 1.65 1.65 0 0 1 .18-.56 1.26 1.26 0 0 1 .25-.36 1.14 1.14 0 0 1 .36-.19 1.85 1.85 0 0 1 .34-.07h.32a2.77 2.77 0 0 1 .62 0 1.16 1.16 0 0 1 .63.39 1.22 1.22 0 0 1 .29.92 1.5 1.5 0 0 1-.29.82z"/></svg>