<svg id="Grid" xmlns="http://www.w3.org/2000/svg" xmlns:xlink="http://www.w3.org/1999/xlink" viewBox="0 0 242.74 33.37"><defs><style>.cls-1{font-size:10.21px;font-family:Montserrat-Bold,Montserrat;font-weight:700}.cls-1,.cls-18,.cls-3{fill:#fff}.cls-2{letter-spacing:-.04em}.cls-3{stroke:#fff;stroke-miterlimit:10;stroke-width:3px}.cls-4{fill:url(#linear-gradient)}.cls-5{fill:url(#linear-gradient-2)}.cls-6{fill:url(#linear-gradient-3)}.cls-7{fill:url(#linear-gradient-4)}.cls-8{fill:url(#linear-gradient-5)}.cls-9{fill:url(#linear-gradient-6)}.cls-10{fill:url(#linear-gradient-7)}.cls-11{fill:url(#linear-gradient-8)}.cls-12{fill:url(#linear-gradient-9)}.cls-13{fill:url(#linear-gradient-10)}.cls-14{fill:url(#linear-gradient-11)}.cls-15{fill:url(#linear-gradient-12)}.cls-16{fill:url(#linear-gradient-13)}.cls-17{fill:url(#linear-gradient-14)}.cls-19{fill:#f50}</style><linearGradient id="linear-gradient" x1="26.27" y1="4.63" x2="26.27" y2="30.63" gradientUnits="userSpaceOnUse"><stop offset="0" stop-color="#f5871f"/><stop offset=".24" stop-color="#f47e20"/><stop offset=".63" stop-color="#f26621"/><stop offset="1" stop-color="#ef4923"/></linearGradient><linearGradient id="linear-gradient-2" x1="23.77" y1="4.64" x2="23.77" y2="30.63" xlink:href="#linear-gradient"/><linearGradient id="linear-gradient-3" x1="18.82" y1="4.63" x2="18.82" y2="30.63" xlink:href="#linear-gradient"/><linearGradient id="linear-gradient-4" x1="21.28" y1="4.65" x2="21.28" y2="30.63" xlink:href="#linear-gradient"/><linearGradient id="linear-gradient-5" x1="9.16" y1="4.64" x2="9.16" y2="30.63" xlink:href="#linear-gradient"/><linearGradient id="linear-gradient-6" x1="28.79" y1="4.64" x2="28.79" y2="30.63" xlink:href="#linear-gradient"/><linearGradient id="linear-gradient-7" x1="11.55" y1="4.65" x2="11.55" y2="30.63" xlink:href="#linear-gradient"/><linearGradient id="linear-gradient-8" x1="13.95" y1="4.64" x2="13.95" y2="30.63" xlink:href="#linear-gradient"/><linearGradient id="linear-gradient-9" x1="16.34" y1="4.64" x2="16.34" y2="30.63" xlink:href="#linear-gradient"/><linearGradient id="linear-gradient-10" x1="31.3" y1="4.64" x2="31.3" y2="30.62" xlink:href="#linear-gradient"/><linearGradient id="linear-gradient-11" x1="2.23" y1="4.63" x2="2.23" y2="30.63" xlink:href="#linear-gradient"/><linearGradient id="linear-gradient-12" x1="4.44" y1="4.63" x2="4.44" y2="30.63" xlink:href="#linear-gradient"/><linearGradient id="linear-gradient-13" x1="6.79" y1="4.64" x2="6.79" y2="30.63" xlink:href="#linear-gradient"/><linearGradient id="linear-gradient-14" x1="47.08" y1="4.64" x2="47.08" y2="30.59" gradientUnits="userSpaceOnUse"><stop offset="0" stop-color="#f6921e"/><stop offset="0" stop-color="#f5891f"/><stop offset="0" stop-color="#f5871f"/><stop offset=".24" stop-color="#f47e20"/><stop offset=".63" stop-color="#f26621"/><stop offset="1" stop-color="#ef4923"/></linearGradient></defs><title>Artboard 13</title><text class="cls-1" transform="translate(71.82 10.97)">CLIQUE <tspan class="cls-2" x="42.11" y="0">P</tspan><tspan x="48.6" y="0">ARA OUVIR NO</tspan></text><path class="cls-3" d="M27.32 23.75L27 11a.71.71 0 1 0-1.42 0l-.32 12.78.32 6.15a.71.71 0 0 0 1.42 0zm-2.53 0l-.39-13.26a.66.66 0 0 0-1.32 0l-.34 13.26.35 6.19a.66.66 0 0 0 .65.65.67.67 0 0 0 .66-.65zm-5.44-13.16a.55.55 0 1 0-1.11 0l-.41 13.17.41 6.24a.55.55 0 0 0 1.11 0l.46-6.28zm2.52-.45a.61.61 0 0 0-1.21 0l-.38 13.61.37 6.25a.61.61 0 0 0 1.21 0l.42-6.24zM9.12 30.42a.36.36 0 0 0 .35-.35l.6-6.33-.6-6.56a.35.35 0 0 0-.7 0l-.53 6.56.53 6.33a.36.36 0 0 0 .35.35zm20.73-6.67l-.32-15.2a.76.76 0 0 0-.76-.75.7.7 0 0 0-.41.13.75.75 0 0 0-.35.63v.14l-.28 15.06.27 6.1a.78.78 0 0 0 .18.45.76.76 0 0 0 1.34-.48v-.6zm-17.94-6.08a.4.4 0 0 0-.4-.39.41.41 0 0 0-.41.39l-.5 6.08.5 6.39a.4.4 0 0 0 .8 0l.57-6.39zm2.02-4.26a.46.46 0 0 0-.45.45L13 23.75l.47 6.39a.45.45 0 0 0 .9 0l.54-6.39-.54-9.89a.46.46 0 0 0-.44-.45zm2.89 16.72l.49-6.35-.49-12.15a.51.51 0 0 0-1 0l-.44 12.15.44 6.35a.51.51 0 0 0 1 0zM31.7 6.48a.77.77 0 0 0-.41-.12.82.82 0 0 0-.51.18.83.83 0 0 0-.3.63v.08l-.33 16.5.17 3.05.16 3a.81.81 0 0 0 1.62 0l.36-6-.36-16.62a.82.82 0 0 0-.4-.7zM2.19 27.24a.26.26 0 0 0 .24-.24l.51-3.26-.51-3.32a.25.25 0 0 0-.24-.23.25.25 0 0 0-.25.23l-.43 3.32.44 3.26a.25.25 0 0 0 .24.24zm2.21 2a.26.26 0 0 0 .25-.24l.67-5.26-.67-5.38a.27.27 0 0 0-.25-.24.26.26 0 0 0-.25.24l-.59 5.38.59 5.26a.26.26 0 0 0 .25.24zm2.35.94a.31.31 0 0 0 .3-.29l.63-6.14-.63-6.38a.3.3 0 0 0-.6 0l-.55 6.37.56 6.14a.31.31 0 0 0 .29.3zM54 15.91a7.32 7.32 0 0 0-2.84.57 13 13 0 0 0-17.65-11c-.55.21-.7.43-.7.86v23.41a.86.86 0 0 0 .79.85H54a7.34 7.34 0 1 0 0-14.68z"/><path class="cls-4" d="M27.32 23.75L27 11a.71.71 0 1 0-1.42 0l-.32 12.78.32 6.15a.71.71 0 0 0 1.42 0z"/><path class="cls-5" d="M24.79 23.75l-.39-13.26a.66.66 0 0 0-1.32 0l-.34 13.26.35 6.19a.66.66 0 0 0 .65.65.67.67 0 0 0 .66-.65z"/><path class="cls-6" d="M19.35 10.59a.55.55 0 1 0-1.11 0l-.41 13.17.41 6.24a.55.55 0 0 0 1.11 0l.46-6.28z"/><path class="cls-7" d="M21.87 10.14a.61.61 0 0 0-1.21 0l-.38 13.61.37 6.25a.61.61 0 0 0 1.21 0l.42-6.24z"/><path class="cls-8" d="M9.12 30.42a.36.36 0 0 0 .35-.35l.6-6.33-.6-6.56a.35.35 0 0 0-.7 0l-.53 6.56.53 6.33a.36.36 0 0 0 .35.35z"/><path class="cls-9" d="M29.85 23.75l-.32-15.2a.76.76 0 0 0-.76-.75.7.7 0 0 0-.41.13.75.75 0 0 0-.35.63v.14l-.28 15.06.27 6.1a.78.78 0 0 0 .18.45.76.76 0 0 0 1.34-.48v-.6z"/><path class="cls-10" d="M11.91 17.67a.4.4 0 0 0-.4-.39.41.41 0 0 0-.41.39l-.5 6.08.5 6.39a.4.4 0 0 0 .8 0l.57-6.39z"/><path class="cls-11" d="M13.93 13.41a.46.46 0 0 0-.45.45L13 23.75l.47 6.39a.45.45 0 0 0 .9 0l.54-6.39-.54-9.89a.46.46 0 0 0-.44-.45z"/><path class="cls-12" d="M16.82 30.13l.49-6.35-.49-12.15a.51.51 0 0 0-1 0l-.44 12.15.44 6.35a.51.51 0 0 0 1 0z"/><path class="cls-13" d="M31.7 6.48a.77.77 0 0 0-.41-.12.82.82 0 0 0-.51.18.83.83 0 0 0-.3.63v.08l-.33 16.5.17 3.05.16 3a.81.81 0 0 0 1.62 0l.36-6-.36-16.62a.82.82 0 0 0-.4-.7z"/><path class="cls-14" d="M2.19 27.24a.26.26 0 0 0 .24-.24l.51-3.26-.51-3.32a.25.25 0 0 0-.24-.23.25.25 0 0 0-.25.23l-.43 3.32.44 3.26a.25.25 0 0 0 .24.24z"/><path class="cls-15" d="M4.4 29.24a.26.26 0 0 0 .25-.24l.67-5.26-.67-5.38a.27.27 0 0 0-.25-.24.26.26 0 0 0-.25.24l-.59 5.38.59 5.26a.26.26 0 0 0 .25.24z"/><path class="cls-16" d="M6.75 30.18a.31.31 0 0 0 .3-.29l.63-6.14-.63-6.38a.3.3 0 0 0-.6 0l-.55 6.37.56 6.14a.31.31 0 0 0 .29.3z"/><path class="cls-17" d="M54 15.91a7.32 7.32 0 0 0-2.84.57 13 13 0 0 0-17.65-11c-.55.21-.7.43-.7.86v23.41a.86.86 0 0 0 .79.85H54a7.34 7.34 0 1 0 0-14.68z"/><path class="cls-18" d="M78.09 22.29c-2.08-.49-2.64-.75-2.64-1.57 0-.58.47-1.18 1.87-1.18a4 4 0 0 1 3 1.34l1.89-1.83A6.28 6.28 0 0 0 77.42 17c-2.58 0-4.68 1.46-4.68 3.84 0 2.58 1.69 3.34 4.09 3.9s2.92.94 2.92 1.78c0 1-.73 1.42-2.28 1.42a4.23 4.23 0 0 1-3.35-1.5l-1.89 1.68a6.07 6.07 0 0 0 5.09 2.37c3.57 0 5.14-1.68 5.14-4.17 0-2.83-2.29-3.54-4.37-4.03zm12-5.29c-3.57 0-5.69 2.77-5.69 6.75s2.12 6.75 5.69 6.75 5.69-2.76 5.69-6.75S93.7 17 90.13 17zm0 10.9c-2.11 0-3-1.81-3-4.15s.88-4.15 3-4.15 3 1.81 3 4.15-.84 4.15-2.96 4.15zm16.25-3.34c0 2.09-1 3.38-2.69 3.38S101 26.61 101 24.52v-7.31h-2.6v7.35c0 3.81 2.13 5.94 5.29 5.94 3.33 0 5.31-2.19 5.31-6v-7.29h-2.62zm13.91-1.81v2.86c-.17-.34-.6-1-.92-1.48l-4.64-6.92h-2.51V30.3h2.58v-8.62c.17.33.6 1 .92 1.48l4.81 7.14h2.34V17.21h-2.58zm10-5.54h-4.09V30.3h3.91c3.37 0 6.7-1.94 6.7-6.54.07-4.76-2.7-6.55-6.44-6.55zm-.19 10.54h-1.29v-8h1.39c2.77 0 3.91 1.32 3.91 4 .08 2.4-1.18 4-3.92 4zm14.79-8.15a2.49 2.49 0 0 1 2.4 1.42l2.43-1.12A4.93 4.93 0 0 0 145 17c-3.43 0-5.82 2.77-5.82 6.75s2.3 6.75 5.72 6.75a5 5 0 0 0 4.84-3l-2.21-1.31A2.73 2.73 0 0 1 145 27.9c-2 0-3.11-1.8-3.11-4.15s1.11-4.15 3.04-4.15zm9.71-2.39H152V30.3h7.87v-2.58h-5.25zm12.23-.21c-3.57 0-5.69 2.77-5.69 6.75s2.12 6.75 5.69 6.75 5.69-2.76 5.69-6.75-2.12-6.75-5.69-6.75zm0 10.9c-2.12 0-3-1.81-3-4.15s.88-4.15 3-4.15 3 1.81 3 4.15-.88 4.15-3 4.15zM183 24.56c0 2.09-1 3.38-2.69 3.38s-2.68-1.33-2.68-3.42v-7.31h-2.62v7.35c0 3.81 2.13 5.94 5.29 5.94 3.33 0 5.31-2.19 5.31-6v-7.29H183zm10-7.35h-4.1V30.3h3.91c3.37 0 6.69-1.94 6.69-6.54.03-4.76-2.73-6.55-6.5-6.55zm-.19 10.54h-1.29v-8h1.39c2.76 0 3.9 1.32 3.9 4 .03 2.4-1.22 4-3.97 4z"/><path class="cls-19" d="M226.06 32.37a15.68 15.68 0 1 1 15.68-15.68 15.7 15.7 0 0 1-15.68 15.68z"/><path class="cls-18" d="M226.06 2a14.68 14.68 0 1 1-14.68 14.68A14.68 14.68 0 0 1 226.06 2m0-2a16.68 16.68 0 1 0 16.68 16.68A16.7 16.7 0 0 0 226.06 0z"/><path class="cls-18" d="M223.18 22.44l6.42-5.85-6.2-5.28 1.57 5.42-1.79 5.71z"/></svg>