<svg id="Grid" xmlns="http://www.w3.org/2000/svg" viewBox="0 0 187.62 145.6"><defs><style>.cls-1{fill:#f3c6cf}.cls-2{fill:#fff}</style></defs><title>Artboard 28</title><path class="cls-1" d="M36 .33H17.78V7.9H29.4v18.92c0 8-6.36 12.74-17 12.74h-.51v7.65h.51c7 0 12.92-1.71 17.14-4.93 4.66-3.56 7.12-8.89 7.12-15.47V7.9H44v31.66h-8v7.65h23.2v-7.65h-8V7.9h8V.33H36z"/><path class="cls-1" d="M84.67 31.41L64.48.26 58.91.19v47.02h7.21V16.34l20.01 30.87h5.7V.26h-7.16v31.15z"/><path class="cls-1" d="M110.15 31.87h15.68a13.55 13.55 0 0 1-12.77 8.29c-8.22 0-14.44-7-14.44-16.34s6.22-16.16 14.44-16.16 12.24 5 13.35 9.71l.1.39h7.66l-.12-.6C131.69 4.49 121.26 0 113.06 0 100.72 0 91.4 10.24 91.4 23.81c0 13.74 9.11 23.73 21.66 23.73 7.79 0 15.58-5.18 19.12-12.37v.37l1-2.7a35.38 35.38 0 0 0 1.2-8.08v-.55h-24.23z"/><path class="cls-1" d="M167.63 27.59h19.48v-7.71h-19.48V7.97h19.93V.33h-27.22v39.23h-19.78V.33h-7.22v46.88h54.28v-7.65h-19.99V27.59z"/><path class="cls-2" d="M49.92 51.09h-38v15.27h23.41v38.14c0 16.07-12.82 25.68-34.33 25.68H0v15.42h1c14.12 0 26.06-3.44 34.57-9.94 9.43-7.16 14.35-17.91 14.35-31.16z"/><path class="cls-2" d="M113.34 133.49l-31.1-83.74H71.62L36 145.6h15.72l.27-.69c2.12-5.95 5.42-14.63 10.13-26.58h29.71l10.42 27.27h11.09zm-45.76-29.76L77 75.36l9.28 28.37z"/><path class="cls-2" d="M112.67 145.6h10.09V82.92l21.11 33.46h8.2l21.06-33.46v62.68h14.49V50.96h-11.51l-28.09 44.07-28.07-44.07h-11.76v94.64h4.48z"/></svg>