<svg id="Grid" xmlns="http://www.w3.org/2000/svg" viewBox="0 0 128.49 27.34"><defs><style>.cls-1{opacity:.5}.cls-2{fill:#fff}</style></defs><title>Artboard 15</title><path class="cls-1 cls-2" d="M18.28 3.64a1.82 1.82 0 1 1 1.82-1.82 1.82 1.82 0 0 1-1.82 1.82zm0-2.74a.92.92 0 1 0 .92.92.92.92 0 0 0-.92-.91zm6.33 25.79h-1.69l-1.2-2.83-1.14-2.69H16c-.39.94-.73 1.75-1.13 2.69l-1.2 2.83H12l3.17-7.47 3.16-7.47 3.17 7.47zm-6.14-10.52l-.18-.67a14 14 0 0 1-.71 2c-.29.64-.63 1.42-.9 2.08h3.23l-.74-1.76zm20.29-3.77h1.7l-3.16 7.47-3.17 7.47L31 19.87l-3.2-7.47h1.7l2.23 5.26 2.22 5.26.18.67.18-.67 2.23-5.26zm8.06 14.29V12.4h8.44V14h-6.75v4.73h6.75v1.61h-6.75v4.72h6.75v1.61zm44.39 0h-2L86.26 23l-2.92-3.71-.63.6-.63.6v6.21h-1.7V12.4h1.69v6.26l.19-.24.19-.23 3-2.89 3-2.89h2.08l-3 2.9-3 2.9 3.37 4.25zm17.87 0h-1.69l-1.2-2.83L105 21h-4.5l-1.19 2.83-1.19 2.83h-1.7l3.16-7.47 3.17-7.47 3.17 7.47zm-6.14-10.52l-.18-.67a14.15 14.15 0 0 1-.71 2q-.43 1-.84 1.94h3.1l-.68-1.62zm25.55-3.77v14.94l-5.23-5.55-5.26-5.55-.19-.26-.19-.27v10.98H116V11.74l5.23 5.67 5.23 5.67.19.27.19.27V12.4zM3.94 12.38H0v14.35h1.7v-6.4h2.24a4 4 0 0 0 0-8zm0 6.31H1.71V14h2.23a2.36 2.36 0 0 1 0 4.71zm65.44 1.44a4 4 0 0 0-1.24-7.75h-3.93v14.35h1.7v-6.4h1.74l3 6.37h1.84zm-3.47-1.43V14h2.23a2.36 2.36 0 0 1 0 4.71h-2.23z"/></svg>